# xmcd
#
# Track frame offsets:
#	150
#	10021
#	35663
#	58482
#	92345
#	120213
#	174097
#	194015
#	228939
#
# Disc length: 3393 seconds
#
# Revision: 14
# Processed by: cddbd v1.5.2PL0 Copyright (c) Steve Scherf et al.
# Submitted via: Jack! The Knife 20 Magnifico
#
DISCID=670d3f09
DTITLE=Grave Digger - Heart Of Darkness
DYEAR=1995
DGENRE=Metal
TTITLE0=Tears Of Madness
TTITLE1=Shadowmaker
TTITLE2=The Grave Dancer
TTITLE3=Demon's Day
TTITLE4=Warchild
TTITLE5=Heart Of Darkness
TTITLE6=Hate
TTITLE7=Circle Of Witches
TTITLE8=Black Death
EXTD=Chris Boltendahl and Uwe Lulis
EXTT0=Boltendahl, Lulis, Ulrich, Göttlich
EXTT1=Boltendahl, Lulis, Ulrich, Göttlich
EXTT2=Boltendahl, Lulis, Ulrich, Göttlich
EXTT3=Boltendahl, Lulis, Ulrich, Göttlich
EXTT4=Boltendahl, Lulis, Ulrich, Göttlich
EXTT5=Boltendahl, Lulis, Ulrich, Göttlich
EXTT6=Boltendahl, Lulis, Ulrich, Göttlich
EXTT7=Boltendahl, Lulis, Ulrich, Göttlich
EXTT8=Boltendahl, Lulis, Ulrich, Göttlich
PLAYORDER=
